<svg width="30" height="30" viewBox="0 0 30 30" fill="none" xmlns="http://www.w3.org/2000/svg">
<g id="react-javascript-js-framework-facebook_svgrepo.com" clip-path="url(#clip0_412_125)">
<g id="Icons1">
<g id="react">
<path id="Vector" d="M15.0005 17.0779C16.1597 17.0779 17.0995 16.1381 17.0995 14.9788C17.0995 13.8195 16.1597 12.8798 15.0005 12.8798C13.8412 12.8798 12.9014 13.8195 12.9014 14.9788C12.9014 16.1381 13.8412 17.0779 15.0005 17.0779Z" fill="#00D8FF"/>
<path id="Vector_2" fill-rule="evenodd" clip-rule="evenodd" d="M15.1547 10.5543C18.7336 10.5787 22.6383 10.8398 25.3186 13.2299C25.3974 13.3002 25.4733 13.3734 25.5473 13.4488C26.1797 14.0934 26.5102 15.134 25.9997 15.9904C24.9525 17.7487 22.6106 18.5156 20.3433 18.9876C16.9523 19.6935 13.4067 19.6992 10.0172 19.0776C8.06672 18.7195 6.07219 18.0918 4.6861 16.7788C4.14657 16.2679 3.68532 15.5957 3.7575 14.8476C3.87469 13.6373 5.03579 12.8606 6.01313 12.3346C8.72766 10.874 12.0352 10.5473 15.1547 10.5543ZM14.895 11.1042C11.5088 11.1271 7.8436 11.3432 5.22891 13.5084C5.1375 13.5838 5.04938 13.6631 4.96454 13.746C4.90969 13.7995 4.85672 13.8552 4.80563 13.9124C4.34672 14.4281 4.18875 15.2563 4.62188 15.8756C5.05782 16.4985 5.71969 16.9481 6.40125 17.3146C8.95032 18.6852 11.9625 18.9285 14.8992 18.9388C17.8725 18.9496 20.9386 18.6787 23.565 17.3207C24.6113 16.7793 25.7888 15.9843 25.747 14.9606C25.7086 14.0212 24.7927 13.4409 24.1069 13.0265C23.9213 12.9145 23.7305 12.8109 23.5369 12.7134C20.9297 11.407 17.8744 11.0976 14.895 11.1042Z" fill="#00D8FF"/>
<path id="Vector_3" fill-rule="evenodd" clip-rule="evenodd" d="M19.7414 5.01701C21.0506 5.05029 21.7289 6.62435 21.8184 7.78685C21.8362 8.01794 21.8428 8.24998 21.84 8.48201C21.8372 8.73326 21.8236 8.98451 21.8016 9.23482C21.5255 12.3342 20.1103 15.2859 18.4439 18.0117C16.8141 20.6779 14.8266 23.3367 12.1228 24.5723C11.2289 24.9811 10.1658 25.2333 9.37453 24.7772C8.28984 24.1523 8.17125 22.6908 8.19141 21.5822C8.19656 21.3098 8.21437 21.0375 8.2425 20.7661C8.65922 16.7536 10.6931 12.9525 13.2384 9.67779C14.7234 7.76716 16.4902 5.87201 18.6909 5.18576C19.0373 5.07748 19.3125 5.01185 19.7414 5.01701ZM19.6786 5.56638C18.1416 5.59076 16.7616 6.72982 15.5395 7.91341C12.3267 11.0245 9.95906 15.1622 9.00656 19.5014C8.93297 19.8375 8.87109 20.1759 8.82562 20.5167C8.79047 20.7806 8.76469 21.0459 8.75109 21.3122C8.74031 21.524 8.73656 21.7364 8.74312 21.9487C8.74781 22.1147 8.75859 22.2806 8.77687 22.4456C8.79047 22.5717 8.80875 22.6973 8.83172 22.822C8.84906 22.9144 8.86922 23.0062 8.89266 23.0976C8.91187 23.1717 8.93344 23.2453 8.95781 23.3184C9.14953 23.8964 9.64359 24.4486 10.3069 24.4669C11.8542 24.509 13.3111 23.3808 14.5706 22.1545C16.7817 20.0025 18.4294 17.2983 19.7166 14.4558C20.7553 12.1608 21.7055 9.66607 21.1748 7.13998C21.1547 7.04435 21.1312 6.94966 21.1045 6.85591C21.0825 6.77951 21.0577 6.70404 21.0305 6.62951C20.8242 6.06748 20.3391 5.56498 19.6786 5.56638Z" fill="#00D8FF"/>
<path id="Vector_4" fill-rule="evenodd" clip-rule="evenodd" d="M10.3636 5.03764C12.0342 5.06998 13.5347 6.20389 14.8669 7.47373C17.2978 9.79076 19.0908 12.7383 20.4511 15.8405C21.5049 18.2437 22.4742 20.9414 21.6127 23.4773C21.3413 24.2765 20.6545 25.0078 19.7391 25.0265C18.0605 25.0603 16.5047 23.8397 15.1547 22.5258C11.768 19.2286 9.25361 14.8758 8.39205 10.2595C8.33017 9.92951 8.28095 9.5967 8.2472 9.26248C8.21955 8.98967 8.2022 8.71545 8.19751 8.44123C8.19376 8.21998 8.19845 7.99873 8.21392 7.77842C8.22423 7.63123 8.23923 7.48498 8.25939 7.3392C8.27861 7.20233 8.30298 7.06592 8.33345 6.93092C8.35361 6.84139 8.37611 6.7528 8.40189 6.66467C8.65455 5.80076 9.31173 5.03108 10.3636 5.03764ZM10.3003 5.58748C9.32205 5.60905 8.87439 6.76264 8.78439 7.57217C8.76611 7.73811 8.75486 7.90545 8.7497 8.0728C8.74314 8.28655 8.74595 8.50076 8.75673 8.71451C8.91048 11.8078 10.2933 14.7984 11.962 17.5369C13.5333 20.115 15.4308 22.6828 18.0408 24.0028C18.7945 24.3839 19.7105 24.6834 20.3616 24.3234C21.1781 23.8715 21.2785 22.7948 21.322 21.9923C21.3338 21.7739 21.3352 21.5545 21.3281 21.3356C21.3197 21.0609 21.2981 20.7867 21.2658 20.5139C20.9649 17.9653 19.8361 15.5536 18.5395 13.2745C16.9261 10.4395 14.9494 7.61389 12.1519 6.1378C11.5725 5.83217 10.9453 5.58233 10.3003 5.58748Z" fill="#00D8FF"/>
</g>
</g>
</g>
<defs>
<clipPath id="clip0_412_125">
<rect width="30" height="30" fill="white"/>
</clipPath>
</defs>
</svg>
